<svg height="512" viewBox="0 0 58 59" width="512" xmlns="http://www.w3.org/2000/svg"><g id="071---Caligraphy-" fill="none"><path id="Shape" d="m58 19v33c0 .5522847-.4477153 1-1 1h-13v-34c0-3.31 3.69-6 7-6h1c3.3137085 0 6 2.6862915 6 6z" fill="#f0c419"/><path id="Shape" d="m18.441 13.947c-2.864 5.4-6.154 9.615-9.435 8.958-3.22-.579-4.131-7.593.91-14.24 5-6.608 12.032-8.873 13.2-7.067 1.247 1.792-1.89 6.844-4.675 12.349z" fill="#cbb292"/><path id="Shape" d="m8 30c-.03 0-.061 0-.091 0-.2656521-.0230657-.51109002-.1512738-.68177773-.3561366s-.25248704-.4694114-.22722227-.7348634c1.06750216-11.0531511 6.632536-21.18122338 15.39-28.009.4349242-.34048352 1.0635164-.26392421 1.404.17100002.3404835.43492423.2639242 1.06351642-.171 1.40399998-8.3209974 6.48877534-13.6085779 16.1129457-14.623 26.616-.04718988.5164677-.48138537.9111514-1 .909z" fill="#7f6e5d"/><path id="Rectangle-path" d="m3 32.188h10v5.625h-10z" fill="#35495e"/><path id="Shape" d="m51 13c-3.3137085 0-6 2.6862915-6 6v34c0 3.3137085-2.6862915 6-6 6h-1c-3.021 0-8.026-.741-8.44-3.649-.0692705-.4884797-.4876334-.851402-.981-.851l-7.579-1.5v-34c0-3.3137085 2.6862915-6 6-6z" fill="#f9eab0"/><g fill="#a59078"><path id="Shape" d="m28 23h-3c-.5522847 0-1-.4477153-1-1s.4477153-1 1-1h3c.5522847 0 1 .4477153 1 1s-.4477153 1-1 1z"/><path id="Shape" d="m41 23h-9c-.5522847 0-1-.4477153-1-1s.4477153-1 1-1h9c.5522847 0 1 .4477153 1 1s-.4477153 1-1 1z"/><path id="Shape" d="m41 27h-3c-.5522847 0-1-.4477153-1-1s.4477153-1 1-1h3c.5522847 0 1 .4477153 1 1s-.4477153 1-1 1z"/><path id="Shape" d="m34 27h-9c-.5522847 0-1-.4477153-1-1s.4477153-1 1-1h9c.5522847 0 1 .4477153 1 1s-.4477153 1-1 1z"/><path id="Shape" d="m28 31h-3c-.5522847 0-1-.4477153-1-1s.4477153-1 1-1h3c.5522847 0 1 .4477153 1 1s-.4477153 1-1 1z"/><path id="Shape" d="m41 31h-9c-.5522847 0-1-.4477153-1-1s.4477153-1 1-1h9c.5522847 0 1 .4477153 1 1s-.4477153 1-1 1z"/><path id="Shape" d="m28 39h-3c-.5522847 0-1-.4477153-1-1s.4477153-1 1-1h3c.5522847 0 1 .4477153 1 1s-.4477153 1-1 1z"/><path id="Shape" d="m41 39h-9c-.5522847 0-1-.4477153-1-1s.4477153-1 1-1h9c.5522847 0 1 .4477153 1 1s-.4477153 1-1 1z"/><path id="Shape" d="m41 43h-3c-.5522847 0-1-.4477153-1-1s.4477153-1 1-1h3c.5522847 0 1 .4477153 1 1s-.4477153 1-1 1z"/><path id="Shape" d="m34 43h-9c-.5522847 0-1-.4477153-1-1s.4477153-1 1-1h9c.5522847 0 1 .4477153 1 1s-.4477153 1-1 1z"/><path id="Shape" d="m28 47h-3c-.5522847 0-1-.4477153-1-1s.4477153-1 1-1h3c.5522847 0 1 .4477153 1 1s-.4477153 1-1 1z"/><path id="Shape" d="m41 47h-9c-.5522847 0-1-.4477153-1-1s.4477153-1 1-1h9c.5522847 0 1 .4477153 1 1s-.4477153 1-1 1z"/></g><path id="Shape" d="m16 39v5h-16v-5c.0032948-1.1032019.89679813-1.9967052 2-2h12c1.1032019.0032948 1.9967052.8967981 2 2z" fill="#3b97d3"/><path id="Shape" d="m16 43v4c-.0032948 1.1032019-.8967981 1.9967052-2 2h-12c-1.10320187-.0032948-1.9967052-.8967981-2-2v-4z" fill="#2980ba"/><path id="Shape" d="m13 30v3h-10v-3c0-.5522847.44771525-1 1-1h8c.5522847 0 1 .4477153 1 1z" fill="#3f5c6c"/><path id="Shape" d="m38 59h-24c-2.8686628-.0028424-5.33513148-2.0333128-5.889-4.848-.04760894-.2890369.03509561-.5843279.22590771-.8065883.1908121-.2222605.47017928-.3487152.76309229-.3454117h21.979c.4933666-.000402.9117295.3625203.981.851.4262249 2.9534832 2.9559217 5.1463129 5.94 5.149z" fill="#f3d55b"/></g></svg>